<?xml version="1.0" standalone="no"?>
<!DOCTYPE svg PUBLIC "-//W3C//DTD SVG 20010904//EN"
 "http://www.w3.org/TR/2001/REC-SVG-20010904/DTD/svg10.dtd">
<svg version="1.0" xmlns="http://www.w3.org/2000/svg"
 width="260.000000pt" height="260.000000pt" viewBox="0 0 260.000000 260.000000"
 preserveAspectRatio="xMidYMid meet">
<metadata>
Created by potrace 1.14, written by Peter Selinger 2001-2017
</metadata>
<g transform="translate(0.000000,260.000000) scale(0.100000,-0.100000)"
fill="#000000" stroke="none">
<path d="M435 2146 c-314 -61 -434 -259 -315 -522 30 -67 90 -159 140 -214
l31 -35 -29 45 c-123 189 -136 351 -37 467 33 39 126 96 188 114 100 31 333
44 442 26 17 -3 50 -8 75 -12 254 -39 610 -175 859 -330 377 -234 614 -532
595 -752 -5 -62 -46 -144 -91 -184 -48 -41 -141 -85 -223 -104 l-65 -15 75 5
c97 6 132 12 200 37 206 77 286 227 225 424 -136 440 -922 943 -1640 1049 -93
14 -361 14 -430 1z"/>
<path d="M667 1964 c-1 -2 -21 -4 -42 -5 -22 -1 -79 -10 -127 -21 -103 -23
-193 -76 -233 -136 -28 -43 -57 -126 -48 -136 3 -3 25 12 49 34 106 97 288
149 511 145 130 -3 190 -10 308 -37 539 -124 1065 -539 1080 -853 4 -93 -47
-183 -133 -237 -19 -11 -66 -31 -105 -45 l-72 -24 57 6 c219 19 357 123 371
277 20 218 -212 508 -580 727 -271 160 -596 273 -853 296 -86 8 -179 12 -183
9z"/>
<path d="M814 1720 c-106 -27 -190 -74 -260 -144 -121 -121 -169 -286 -133
-458 14 -63 57 -152 93 -190 60 -63 155 -112 243 -124 57 -8 164 -8 219 0 145
23 285 95 268 140 -8 21 -11 20 -75 -8 -85 -37 -184 -56 -279 -52 -169 6 -265
83 -309 248 -13 44 -11 197 2 243 34 122 87 194 184 251 117 69 350 63 398
-10 8 -12 17 -41 21 -66 4 -25 11 -51 17 -57 13 -18 47 -16 48 2 1 8 2 18 3
23 1 4 6 27 10 52 14 76 15 84 21 111 6 25 3 27 -57 39 -102 22 -330 22 -414
0z"/>
<path d="M1204 1288 c-9 -15 10 -37 37 -43 16 -4 38 -19 50 -33 20 -26 21 -34
15 -167 -4 -77 -8 -156 -10 -175 -2 -19 -7 -62 -10 -95 -13 -121 -17 -151 -31
-201 -17 -58 -36 -79 -85 -91 -20 -5 -36 -16 -38 -26 -3 -15 14 -17 192 -17
107 0 197 4 200 9 9 14 -16 29 -64 40 -67 15 -71 26 -69 176 0 72 5 137 10
146 7 14 22 16 96 12 110 -5 135 -16 146 -66 9 -39 31 -57 47 -41 4 5 11 50
15 99 3 50 8 111 10 138 4 41 2 47 -14 47 -13 0 -24 -13 -35 -40 -24 -60 -53
-74 -168 -78 l-98 -4 5 53 c10 90 26 192 38 232 15 54 47 68 160 68 129 1 167
-18 167 -85 0 -37 10 -56 30 -56 13 0 20 10 24 38 3 20 9 55 13 77 3 22 7 51
7 64 l1 23 -318 2 c-176 0 -321 -2 -323 -6z"/>
</g>
</svg>
